# xmcd
#
# Track frame offsets: 
#        150
#        11984
#        26188
#        40483
#        52596
#        66334
#        79301
#        89640
#        101316
#        114688
#        126886
#        138919
#        150597
#        160319
#        174215
#        188085
#        200117
#        209746
#        220167
#        232334
#        245035
#        257489
#        267557
#        279499
#        289718
#
# Disc length: 3994 seconds
#
# Revision: 1
# Processed by: cddbd v1.5.2PL0 Copyright (c) Steve Scherf et al.
# Submitted via: ExactAudioCopyFreeDBPlugin 1.0
#
DISCID=810f9819
DTITLE=Various Artist - The Vee Jay Records Story [Real Gone Music]
DYEAR=2017
DGENRE=Rhythm and Blues
TTITLE0=The Magnificents - Hiccup
TTITLE1=The Delegates - The Convention
TTITLE2=Pee Wee Crayton - The Telephone is Ringing
TTITLE3=Snooky Pryor - Judgement Day
TTITLE4=The Staple Singers - Uncloudy Day
TTITLE5=The Spaniels - Please Don't Tease
TTITLE6=The Magnificents - Down Off the Mountain
TTITLE7=The Dells - Why Do You Have to Go
TTITLE8=The Orioles - Sugar Girl
TTITLE9=Billy "The Kid" Emerson - The Pleasure is All Mine
TTITLE10=Jimmy Reed - Honest I Do
TTITLE11=Larry Birdsong - I'm Pleading Just for You
TTITLE12=Gene Allison - You Can Make it If You Try
TTITLE13=The Dells - Pain in My Heart
TTITLE14=Elmore James - It Hurts Me Too
TTITLE15=Billy Boy Arnold - Rockinitis
TTITLE16=Larry Birdsong - Oh Oh My Darling
TTITLE17=Lee Diamond - Mama Loochie
TTITLE18=Gene Allison - Have Faith
TTITLE19=Bobby Parker - Blues Get Off My Shoulder
TTITLE20=Jerry Butler and The Impressions - For Your Precious Love
TTITLE21=The Magnificents - Don't Leave Me
TTITLE22=Dillard Croon, Jr. - It's You I Love
TTITLE23=The Twinettes - Let the People Talk
TTITLE24=The Lyrics - Come on Home
EXTD=
EXTT0=
EXTT1=
EXTT2=
EXTT3=
EXTT4=
EXTT5=
EXTT6=
EXTT7=
EXTT8=
EXTT9=
EXTT10=
EXTT11=
EXTT12=
EXTT13=
EXTT14=
EXTT15=
EXTT16=
EXTT17=
EXTT18=
EXTT19=
EXTT20=
EXTT21=
EXTT22=
EXTT23=
EXTT24=
PLAYORDER=
